# AST/ASF file generated using VICON BodyLanguage
# -----------------------------------------------
:version 1.10
:name VICON
:units
  mass 1.0
  length 0.45
  angle deg
:documentation
   .ast/.asf automatically generated from VICON data using
   VICON BodyBuilder and BodyLanguage model FoxedUp or BRILLIANT.MOD
:root
   order TX TY TZ RX RY RZ
   axis XYZ
   position 0 0 0  
   orientation 0 0 0 
:bonedata
  begin
     id 1 
     name lhipjoint
     direction 0.645422 -0.672597 0.361999 
     length 2.39934 
     axis 0 0 0  XYZ
  end
  begin
     id 2 
     name lfemur
     direction 0.34202 -0.939693 0  
     length 6.58112  
     axis 0 0 20  XYZ
    dof rx ry rz
    limits (-160.0 20.0)
           (-70.0 70.0)
           (-60.0 70.0)
  end
  begin
     id 3 
     name ltibia
     direction 0.34202 -0.939693 0   
     length 7.02673   
     axis 0 0 20   XYZ
    dof rx
    limits (-10.0 170.0)
  end
  begin
     id 4 
     name lfoot
     direction 0.0835106 -0.229444 0.969733   
     length 2.08772   
     axis -90 7.62852e-016 20   XYZ
    dof rx rz
    limits (-45.0 90.0)
           (-70.0 20.0)
  end
  begin
     id 5 
     name ltoes
     direction 1.5358e-011 -4.21925e-011 1   
     length 1.04844   
     axis -90 7.62852e-016 20   XYZ
    dof rx
    limits (-90.0 20.0)
  end
  begin
     id 6 
     name rhipjoint
     direction -0.644959 -0.672941 0.362185   
     length 2.39812  
     axis 0 0 0  XYZ 
  end
  begin
     id 7 
     name rfemur
     direction -0.34202 -0.939693 0   
     length 6.67015   
     axis 0 0 -20   XYZ
    dof rx ry rz
    limits (-160.0 20.0)
           (-70.0 70.0)
           (-70.0 60.0)
  end
  begin
     id 8 
     name rtibia
     direction -0.34202 -0.939693 0   
     length 7.35735   
     axis 0 0 -20   XYZ
    dof rx
    limits (-10.0 170.0)
 end
 begin
     id 9 
     name rfoot
     direction -0.0670769 -0.184292 0.98058   
     length 2.25469  
     axis -90 -7.62852e-016 -20   XYZ
    dof rx rz
    limits (-45.0 90.0)
           (-20.0 70.0)
  end
  begin
     id 10 
     name rtoes
     direction -1.53575e-011 -4.21908e-011 1   
     length 1.13399   
     axis -90 -7.62852e-016 -20   XYZ
    dof rx
    limits (-90.0 20.0)
  end
  begin
     id 11 
     name lowerback
     direction -0.0188328 0.993434 -0.112847   
     length 2.27656   
     axis 0 0 0   XYZ
    dof rx ry rz
    limits (-20.0 45.0)
           (-30.0 30.0)
           (-30.0 30.0)
  end
  begin
     id 12 
     name upperback
     direction 0.00983139 0.998968 -0.04435   
     length 2.28631   
     axis 0 0 0   XYZ
    dof rx ry rz
    limits (-20.0 45.0)
           (-30.0 30.0)
           (-30.0 30.0)
  end
  begin
     id 13 
     name thorax
     direction 0.0177718 0.999807 0.00833073   
     length 2.30999   
     axis 0 0 0   XYZ
    dof rx ry rz
    limits (-20.0 45.0)
           (-30.0 30.0)
           (-30.0 30.0)
  end
  begin
     id 14 
     name lowerneck
     direction -0.0835025 0.993181 0.0813558   
     length 1.39447   
     axis 0 0 0   XYZ
    dof rx ry rz
    limits (-20.0 45.0)
           (-30.0 30.0)
           (-30.0 30.0)
  end
  begin
     id 15 
     name upperneck
     direction 0.210059 0.976535 0.0474817   
     length 1.39882   
     axis 0 0 0   XYZ
    dof rx ry rz
    limits (-20.0 45.0)
           (-30.0 30.0)
           (-30.0 30.0)
  end
  begin
     id 16
     name head
     direction 0.0780891 0.996944 -0.00207154  
     length 1.41828  
     axis 0 0 0   XYZ
    dof rx ry rz
    limits (-20.0 45.0)
           (-30.0 30.0)
           (-30.0 30.0)
  end
  begin
     id 17 
     name lclavicle
     direction 0.982414 0.166355 -0.0847829  
     length 3.57922  
     axis 0 0 0   XYZ
    dof ry rz
    limits (-20.0 10.0)
           (0.0 20.0)
  end
  begin
     id 18 
     name lhumerus
     direction 1 -4.48975e-011 5.47647e-028   
     length 4.76405   
     axis -180 -30 -90   XYZ
    dof rx ry rz
    limits (-60.0 90.0)
           (-90.0 90.0)
           (-90.0 90.0)
  end
  begin
     id 19
     name lradius
     direction 1 -4.48949e-011 -8.32142e-027   
     length 3.13759   
     axis -180 -30 -90   XYZ
    dof rx
    limits (-10.0 170.0)
  end
  begin
     id 20
     name lwrist
     direction 1 -4.48978e-011 -1.32705e-026   
     length 1.56879   
     axis 9.60836e-015 90 90   XYZ
    dof ry
    limits (-180.0 0.0)
 end
  begin
     id 21 
     name lhand
     direction 1 -4.48975e-011 -2.65409e-026   
     length 0.732262   
     axis 1.69354e-014 90 90   XYZ
    dof rx rz
    limits (-90.0 90.0)
           (-45.0 45.0)
  end
  begin
     id 22 
     name lfingers
     direction 1 -4.48923e-011 -5.30819e-026   
     length 0.590368   
     axis 3.38708e-014 90 90   XYZ
    dof rx
    limits (0.0 90.0)
  end
  begin
     id 23
     name lthumb
     direction 0.707107 -6.34914e-011 0.707107   
     length 0.847654   
     axis -90 45 2.85299e-015   XYZ
    dof rx rz
    limits (-45.0 45.0)
           (-45.0 45.0)
  end
  begin
     id 24 
     name rclavicle
     direction -0.963658 0.245183 -0.106063   
     length 3.43472  
     axis 0 0 0   XYZ 
    dof ry rz
    limits (-10.0 20.0)
           (-20.0 0.0)
  end
  begin
     id 25 
     name rhumerus
     direction -1 -4.48963e-011 -1.64784e-027  
     length 5.10161   
     axis -180 30 90   XYZ
    dof rx ry rz
    limits (-90.0 60.0)
           (-90.0 90.0)
           (-90.0 90.0)
  end
  begin
     id 26 
     name rradius
     direction -1 -4.48969e-011 -2.87943e-027   
     length 3.23267   
     axis -180 30 90   XYZ
    dof rx
    limits (-10.0 170.0)
  end
  begin
     id 27 
     name rwrist
     direction -1 -4.48982e-011 -1.32705e-026   
     length 1.61633   
     axis 9.60836e-015 -90 -90   XYZ
    dof ry
    limits (-180.0 0.0)
  end
  begin
     id 28
     name rhand
     direction -1 -4.48963e-011 -2.65409e-026   
     length 0.702   
     axis 1.69354e-014 -90 -90   XYZ
    dof rx rz
    limits (-90.0 90.0)
           (-45.0 45.0)
  end
  begin
     id 29
     name rfingers
     direction -1 -4.48934e-011 -5.30819e-026   
     length 0.565971   
     axis 3.38708e-014 -90 -90   XYZ
    dof rx
    limits (0.0 90.0)
  end
  begin
     id 30
     name rthumb
     direction -0.707107 -6.34908e-011 0.707107   
     length 0.812624   
     axis -90 -45 -2.85299e-015   XYZ
    dof rx rz
    limits (-45.0 45.0)
           (-45.0 45.0)
  end
:hierarchy
  begin
    root lhipjoint rhipjoint lowerback
    lhipjoint lfemur
    lfemur ltibia
    ltibia lfoot
    lfoot ltoes
    rhipjoint rfemur
    rfemur rtibia
    rtibia rfoot
    rfoot rtoes
    lowerback upperback
    upperback thorax
    thorax lowerneck lclavicle rclavicle
    lowerneck upperneck
    upperneck head
    lclavicle lhumerus
    lhumerus lradius
    lradius lwrist
    lwrist lhand lthumb
    lhand lfingers
    rclavicle rhumerus
    rhumerus rradius
    rradius rwrist
    rwrist rhand rthumb
    rhand rfingers
  end

#!OML:ASF \\sashay\E\basketball\basketball\Project 1\Capture day 1\Session 1\Subject.ASF
:FULLY-SPECIFIED
:DEGREES
115
root -8.46009 13.801 -4.03611 7.05498 117.513 -24.9496
lowerback 25.9512 1.40385 -6.93959
upperback 10.8065 1.49332 -1.23202
thorax -2.41718 1.11463 2.19206
lowerneck 2.97466 -12.3586 -17.2608
upperneck -31.3004 -11.6964 30.3224
head -6.17532 -6.26561 14.2834
rclavicle -3.49861e-014 -7.07673e-014
rhumerus -32.4649 -23.8808 -66.0162
rradius 59.0663
rwrist -14.5436
rhand -43.4443 57.9281
rfingers 7.12502
rthumb -16.2862 28.5921
lclavicle -3.49861e-014 -7.07673e-014
lhumerus -30.8389 35.3535 54.5247
lradius 85.6511
lwrist 78.6634
lhand 28.173 48.5429
lfingers 7.12502
lthumb 52.0571 68.6145
rfemur -86.8388 -9.56994 45.6679
rtibia 73.251
rfoot -18.3348 -1.28457
rtoes -45.3568
lfemur 2.71759 0.657222 -19.7104
ltibia 33.7234
lfoot 8.54296 -3.58806
ltoes -47.7387
116
root -8.00352 13.771 -4.31041 4.75076 117.849 -27.5464
lowerback 25.513 1.41957 -7.06868
upperback 10.7714 1.49824 -1.62346
thorax -2.23761 1.12037 1.84793
lowerneck 3.26723 -12.4159 -16.7074
upperneck -31.4383 -11.7829 30.0269
head -6.33884 -6.35768 14.1084
rclavicle 3.65764e-014 -3.18055e-014
rhumerus -34.021 -24.4012 -65.5172
rradius 59.3926
rwrist -15.3253
rhand -43.4115 57.3029
rfingers 7.12502
rthumb -16.2546 27.9643
lclavicle 3.65764e-014 -3.18055e-014
lhumerus -35.8203 36.1321 52.3018
lradius 87.3144
lwrist 79.794
lhand 29.536 48.5332
lfingers 7.12502
lthumb 53.2893 67.8406
rfemur -86.1239 -9.95225 46.0073
rtibia 70.1703
rfoot -17.2742 0.846739
rtoes -39.2488
lfemur 3.36734 -0.47415 -20.9951
ltibia 35.4425
lfoot 8.23602 -1.58365
ltoes -46.5713
117
root -7.54816 13.7297 -4.57232 2.38475 118.214 -29.9018
lowerback 25.1305 1.72969 -7.89145
upperback 10.8483 1.76265 -1.42496
thorax -1.99276 1.21408 2.46983
lowerneck 3.59826 -12.5212 -16.9776
upperneck -31.2023 -12.1267 29.9612
head -6.22079 -6.54533 14.0924
rclavicle -8.26944e-014 1.27222e-014
rhumerus -35.327 -24.2902 -64.3603
rradius 59.5775
rwrist -16.4144
rhand -43.3421 56.6017
rfingers 7.12502
rthumb -16.1878 27.2576
lclavicle -8.26944e-014 1.27222e-014
lhumerus -41.0448 37.1803 50.6781
lradius 89.0387
lwrist 80.6013
lhand 30.949 48.3531
lfingers 7.12502
lthumb 54.5581 66.8067
rfemur -84.6743 -10.3903 45.7728
rtibia 67.8687
rfoot -15.8401 2.32388
rtoes -34.1712
lfemur 3.68787 -0.975368 -21.9791
ltibia 38.3978
lfoot 7.72679 0.0141945
ltoes -45.3745
118
root -7.0857 13.6978 -4.82109 0.123711 118.731 -32.0884
lowerback 24.9239 1.89441 -8.152
upperback 10.8707 1.93899 -1.76783
thorax -1.87276 1.30642 2.20395
lowerneck 3.8414 -12.9253 -16.3879
upperneck -31.2382 -12.625 30.2536
head -6.16406 -6.91639 14.069
rclavicle -1.59028e-015 -2.46493e-014
rhumerus -36.898 -24.4942 -64.0041
rradius 59.7856
rwrist -17.8241
rhand -43.0516 55.6952
rfingers 7.12502
rthumb -15.9081 26.3286
lclavicle -1.59028e-015 -2.46493e-014
lhumerus -45.7192 37.588 48.3062
lradius 90.6747
lwrist 81.8452
lhand 31.9545 48.1667
lfingers 7.12502
lthumb 55.455 65.971
rfemur -83.0592 -11.0037 45.4563
rtibia 66.3169
rfoot -14.0816 2.63592
rtoes -10.8728
lfemur 3.40294 -1.26808 -22.7604
ltibia 42.3728
lfoot 7.49126 0.93416
ltoes -45.8723
119
root -6.62108 13.6807 -5.05852 -1.42001 119.426 -33.4891
lowerback 24.6605 2.07404 -8.16143
upperback 10.8871 2.19486 -1.95619
thorax -1.74434 1.43755 1.94665
lowerneck 4.30418 -13.3361 -16.0845
upperneck -31.3695 -13.1437 30.7906
head -6.11527 -7.30721 14.2233
rclavicle 3.18055e-014 7.95139e-016
rhumerus -38.5642 -24.69 -63.6126
rradius 59.9318
rwrist -19.3476
rhand -42.792 55.417
rfingers 7.12502
rthumb -15.658 26.0306
lclavicle 3.18055e-014 7.95139e-016
lhumerus -50.112 37.9798 46.0449
lradius 92.2321
lwrist 83.3055
lhand 32.5179 48.2688
lfingers 7.12502
lthumb 55.9553 65.6931
rfemur -80.8908 -11.8172 45.4793
rtibia 66.0468
rfoot -15.2974 -11.1331
rtoes -25.903
lfemur 2.50892 -1.53731 -23.0401
ltibia 47.1033
lfoot 7.25603 1.39343
ltoes -46.1134
120
root -6.14631 13.6674 -5.28369 -2.11667 120.044 -33.8541
lowerback 24.3556 2.28484 -7.7782
upperback 10.9358 2.5799 -2.05239
thorax -1.56984 1.63771 1.54005
lowerneck 4.72892 -13.7539 -15.7456
upperneck -31.4947 -13.7132 31.0638
head -6.08353 -7.69572 14.2572
rclavicle -3.33958e-014 -1.61413e-013
rhumerus -40.1908 -25.1328 -63.324
rradius 59.9409
rwrist -20.4772
rhand -42.5201 55.3431
rfingers 7.12502
rthumb -15.3962 25.9364
lclavicle -3.33958e-014 -1.61413e-013
lhumerus -54.0665 38.4007 43.7899
lradius 93.6542
lwrist 84.791
lhand 32.1346 48.2408
lfingers 7.12502
lthumb 55.6151 65.9251
rfemur -77.883 -12.2662 44.7873
rtibia 66.4361
rfoot -20.2868 -7.93072
rtoes 7.71173
lfemur 1.24806 -1.57999 -22.5819
ltibia 52.4141
lfoot 6.75082 1.62086
ltoes -44.4704
121
root -5.66999 13.6505 -5.49698 -2.23612 120.482 -33.6257
lowerback 24.0288 2.57348 -7.26695
upperback 10.931 3.07347 -2.05204
thorax -1.44829 1.88859 1.14129
lowerneck 5.06918 -14.1796 -15.2053
upperneck -31.8415 -14.2927 30.8808
head -6.19042 -8.04398 14.1047
rclavicle -3.18055e-014 2.78299e-014
rhumerus -41.6835 -25.5869 -63.0309
rradius 59.8339
rwrist -21.4373
rhand -42.1178 54.465
rfingers 7.12502
rthumb -15.0087 25.029
lclavicle -3.18055e-014 2.78299e-014
lhumerus -57.7782 38.9041 41.5799
lradius 95.155
lwrist 85.8715
lhand 30.9385 47.5233
lfingers 7.12502
lthumb 54.5487 65.9835
rfemur -74.9078 -12.1734 43.8356
rtibia 67.0041
rfoot -20.7529 -9.67045
rtoes 18.7764
lfemur -0.539182 -1.26898 -21.6046
ltibia 58.2331
lfoot 6.16952 1.58803
ltoes -42.6895
122
root -5.20178 13.6309 -5.70343 -1.8738 120.917 -32.9457
lowerback 23.7938 2.86289 -6.56039
upperback 10.8286 3.57634 -1.94354
thorax -1.47158 2.14518 0.742371
lowerneck 5.52481 -14.6193 -15.0343
upperneck -32.0384 -14.9227 31.0939
head -6.16615 -8.43883 14.1495
rclavicle 1.11319e-014 -9.54166e-014
rhumerus -43.0918 -26.0476 -62.645
rradius 59.6228
rwrist -22.2026
rhand -41.6249 53.2719
rfingers 7.12502
rthumb -14.5338 23.801
lclavicle 1.11319e-014 -9.54166e-014
lhumerus -61.2828 39.367 39.5278
lradius 96.8455
lwrist 86.4478
lhand 29.3119 46.2379
lfingers 7.12502
lthumb 53.0873 65.6748
rfemur -72.1734 -11.6935 42.5975
rtibia 67.6283
rfoot -25.8364 -11.2265
rtoes 11.7617
lfemur -2.9588 -0.77216 -20.2111
ltibia 64.4432
lfoot 5.72955 1.24219
ltoes -41.9989
123
root -4.75914 13.611 -5.9169 -0.936112 121.13 -31.6969
lowerback 23.6523 3.1685 -5.32339
upperback 10.6758 4.18391 -1.85944
thorax -1.56245 2.4669 -0.0118348
lowerneck 6.0279 -15.0635 -15.0788
upperneck -32.3665 -15.5396 31.4808
head -6.14434 -8.82087 14.3155
rclavicle -6.36111e-015 1.74931e-014
rhumerus -44.4109 -26.759 -62.209
rradius 59.2995
rwrist -22.6391
rhand -41.0267 52.2382
rfingers 7.12502
rthumb -13.9574 22.7267
lclavicle -6.36111e-015 1.74931e-014
lhumerus -64.1401 39.6917 37.7873
lradius 98.6691
lwrist 86.7503
lhand 26.582 44.6375
lfingers 7.12502
lthumb 50.6095 65.5342
rfemur -69.8139 -11.0658 41.7326
rtibia 68.391
rfoot -27.1958 -15.3076
rtoes 6.14887
lfemur -5.96559 -0.0121075 -18.4952
ltibia 70.9468
lfoot 5.39742 1.01502
ltoes -41.8497
